<?xml version="1.0" encoding="UTF-8"?><svg id="uuid-a2632d20-7d8d-4077-b6ff-d1bb8eb20faa" xmlns="http://www.w3.org/2000/svg" width="32" height="32" viewBox="0 0 32 32"><g id="uuid-dc368a18-5c88-4e53-84c5-ae47aee7cf2f"><g id="uuid-d82387e3-ad7f-4d31-ab16-a00f904e27ac"><path id="uuid-f5323963-c01e-472b-9e56-b3a020c43775" d="m18.75,10.88c.03-.76-.27-1.49-.83-2-.61-.52-1.39-.79-2.19-.75-.53,0-1.05.12-1.52.36-.47.25-.87.62-1.17,1.06-.29.43-.75.71-1.26.77-.5.08-1-.08-1.38-.42-.26-.24-.43-.57-.45-.93-.03-.37.07-.74.27-1.04.59-.9,1.4-1.65,2.36-2.16.97-.51,2.05-.78,3.14-.76,1.67-.07,3.3.5,4.56,1.59,1.17,1.06,1.81,2.59,1.75,4.17.01.82-.18,1.62-.55,2.34-.55.92-1.23,1.75-2.03,2.46-.53.48-1.02,1-1.45,1.58-.26.39-.42.83-.49,1.29-.07.44-.27.85-.59,1.16-.3.3-.72.47-1.14.46-.43,0-.84-.15-1.14-.45-.31-.29-.49-.69-.48-1.11,0-.72.16-1.43.49-2.07.43-.75.99-1.42,1.65-1.98.72-.6,1.38-1.27,1.95-2.01.31-.46.48-1,.48-1.55Zm-3.01,16.12c-.62,0-1.21-.24-1.64-.68-.44-.43-.69-1.02-.68-1.64,0-.62.24-1.21.68-1.64.43-.44,1.02-.69,1.64-.68.62,0,1.21.24,1.64.68.44.43.69,1.02.68,1.64,0,.62-.24,1.21-.68,1.64-.43.44-1.02.69-1.64.68Z" style="stroke-width:0px;"/></g></g></svg>