<?xml version="1.0" encoding="UTF-8"?><svg id="uuid-21bba6b5-fa02-448b-87a3-6c450d175cce" xmlns="http://www.w3.org/2000/svg" width="32" height="32" viewBox="0 0 32 32"><g id="uuid-66008ba1-c727-427b-8a14-0d4518e97e8b"><path id="uuid-88d8be8d-e444-481b-9b96-66aa66d88ada" d="m8,26c-.53,0-1.04-.21-1.41-.59-.38-.37-.6-.88-.59-1.41v-9c0-.53.21-1.04.59-1.41.37-.38.88-.6,1.41-.59h2v-5c0-.53.21-1.04.59-1.41.37-.38.88-.6,1.41-.59h12c.53,0,1.04.21,1.41.59.38.37.6.88.59,1.41v9c0,.53-.21,1.04-.59,1.41-.37.38-.88.6-1.41.59h-2v5c0,.53-.21,1.04-.59,1.41-.37.38-.88.6-1.41.59h-12Zm0-2h12v-7h-12v7Zm14-7h2v-7h-12v3h8c.53,0,1.04.21,1.41.59.38.37.6.88.59,1.41v2Z" style="stroke-width:0px;"/></g></svg>