<?xml version="1.0" encoding="UTF-8"?><svg id="uuid-2d2f28f9-14f2-407a-b3ba-06efb9a51f6c" xmlns="http://www.w3.org/2000/svg" width="32" height="32" viewBox="0 0 32 32"><g id="uuid-d5ca6c54-8ea6-4868-88d3-4bfe004ac9dc"><path id="uuid-b9615f3c-d059-45db-a4c4-2e73c6d391b0" d="m7.3,25.4c-.61,0-1.2-.24-1.62-.68-.44-.42-.68-1.01-.68-1.62v-13.8c0-.61.24-1.2.68-1.62.42-.44,1.01-.68,1.62-.68h13.8c.61,0,1.2.24,1.62.68.44.42.68,1.01.68,1.62v5.17l3.62-3.62c.16-.18.41-.24.63-.14.22.09.36.31.35.55v9.89c.02.24-.12.46-.35.55-.22.1-.48.04-.63-.14l-3.62-3.62v5.17c0,.61-.24,1.2-.68,1.62-.42.44-1.01.68-1.62.68H7.3Zm0-2.3h13.8v-13.8H7.3v13.8Zm0,0h0Z" style="stroke-width:0px;"/></g></svg>