<?xml version="1.0" encoding="UTF-8"?><svg id="uuid-f74a38dc-d38f-4d41-b0b3-e13c8a1a5325" xmlns="http://www.w3.org/2000/svg" width="32" height="32" viewBox="0 0 32 32"><g id="uuid-5b7a5b19-d11b-4934-85ac-64f92c30dd0a"><path id="uuid-02c84417-f87b-4bbe-9013-1758437c10e0" d="m22,26c-.8.01-1.57-.3-2.12-.88-.57-.56-.89-1.33-.88-2.12,0-.12,0-.24.02-.36.01-.11.04-.23.07-.34l-7.05-4.1c-.28.25-.6.45-.95.59-.35.14-.72.21-1.1.21-.8.01-1.57-.3-2.12-.88-.57-.56-.89-1.33-.88-2.12-.01-.8.3-1.57.88-2.12.56-.57,1.33-.89,2.12-.88.38,0,.75.07,1.1.21.35.14.67.34.95.59l7.05-4.1c-.04-.11-.06-.22-.07-.34-.02-.12-.02-.24-.02-.36-.01-.8.3-1.57.88-2.12.56-.57,1.33-.89,2.12-.88.8-.01,1.57.3,2.12.88.57.56.89,1.33.88,2.12.01.8-.3,1.57-.88,2.12-.56.57-1.33.89-2.12.88-.38,0-.75-.07-1.1-.21-.35-.14-.67-.34-.95-.59l-7.05,4.1c.04.11.06.22.07.34.02.12.02.24.03.36,0,.12,0,.24-.03.36-.01.11-.04.23-.07.34l7.05,4.1c.28-.25.6-.45.95-.59.35-.14.72-.21,1.1-.21.8-.01,1.57.3,2.12.88.57.56.89,1.33.88,2.12.01.8-.3,1.57-.88,2.12-.56.57-1.33.89-2.12.88Z" style="stroke-width:0px;"/></g></svg>