<?xml version="1.0" encoding="UTF-8"?><svg id="uuid-8cb9558d-17c4-44fb-a930-42d4b237e8b7" xmlns="http://www.w3.org/2000/svg" width="32" height="32" viewBox="0 0 32 32"><g id="uuid-41cd661d-73ad-43e5-9d49-31fd28d5344c"><g id="uuid-e06f5477-8930-43ed-80a3-50860ec5d77b"><path id="uuid-a45a69db-27e8-491d-baab-0180f725106c" d="m16,18.9c-.93.02-1.82-.35-2.46-1.01-.66-.65-1.03-1.54-1.01-2.46v-6.95c-.02-.93.35-1.82,1.01-2.46.65-.66,1.54-1.03,2.46-1.01.93-.02,1.82.35,2.46,1.01.66.65,1.03,1.54,1.01,2.46v6.95c.02.93-.35,1.82-1.01,2.46-.65.66-1.54,1.03-2.46,1.01Zm-1.16,6.95v-2.4c-1.73-.23-3.33-1.02-4.56-2.26-1.25-1.23-2.06-2.84-2.3-4.57-.05-.3.05-.61.26-.84.21-.23.5-.36.81-.35.31,0,.61.11.82.33.22.23.38.51.45.83.25,1.32.96,2.5,2.01,3.33,1.03.85,2.33,1.31,3.66,1.3,1.34.02,2.65-.45,3.68-1.32,1.04-.83,1.74-2.01,2-3.31.07-.31.22-.6.45-.83.22-.22.52-.34.82-.33.31,0,.6.12.81.35.21.23.31.53.26.84-.25,1.72-1.06,3.32-2.29,4.54-1.22,1.26-2.83,2.06-4.57,2.29v2.4c0,.31-.11.61-.33.83-.22.22-.52.34-.82.33-.31,0-.61-.11-.82-.33-.22-.22-.34-.51-.34-.82h0Z" style="stroke-width:0px;"/></g></g></svg>