<?xml version="1.0" encoding="UTF-8"?><svg id="uuid-2c520797-cdbf-4623-900c-7bdfb5428c65" xmlns="http://www.w3.org/2000/svg" width="32" height="32" viewBox="0 0 32 32"><g id="uuid-3bfe24f7-ba26-4e17-b654-e1ca3c6ffcf4"><g id="uuid-89a353ff-6b4d-4fb7-b361-4e48802973d3"><path id="uuid-42b6797a-b269-4dcb-a8f6-dc7f8f47682c" d="m14.75,15.78v3.97c0,.33.12.66.36.89.23.24.56.37.89.36.33,0,.66-.12.89-.36.24-.23.37-.56.36-.89v-3.94l1.12,1.09c.24.22.55.35.88.36.33.01.65-.12.88-.36.24-.23.38-.55.38-.89,0-.34-.13-.66-.38-.89l-3.25-3.25c-.23-.24-.54-.38-.88-.38-.33,0-.65.13-.88.38l-3.25,3.25c-.24.23-.37.55-.36.88,0,.33.15.65.39.88.24.22.55.35.88.36.33.01.65-.12.88-.36l1.09-1.09Zm-8.75,10.22c-.66,0-1.3-.26-1.77-.73-.48-.46-.74-1.1-.73-1.77v-15c0-.66.26-1.3.73-1.77.46-.48,1.1-.74,1.77-.73h20c.66,0,1.3.26,1.77.73.48.46.74,1.1.73,1.77v15c0,.66-.26,1.3-.73,1.77-.46.48-1.1.74-1.77.73H6Zm0-2.5h20v-15H6v15Zm0,0h0Z" style="stroke-width:0px;"/></g></g></svg>