<?xml version="1.0" encoding="UTF-8"?><svg id="uuid-6092878e-93f3-4ca2-b701-5055018b995b" xmlns="http://www.w3.org/2000/svg" width="32" height="32" viewBox="0 0 32 32"><g id="uuid-f861416e-41e3-46f0-9fdf-d33ec1c9311a"><g id="uuid-ad54a3fa-783a-4569-b8be-150be3722552"><path id="uuid-52614500-657f-4276-a550-dcaa688a906e" d="m2.25,22c0-.69.18-1.37.55-1.95.35-.58.85-1.05,1.45-1.36,1.25-.63,2.57-1.12,3.94-1.45,1.33-.32,2.69-.48,4.06-.48,1.37,0,2.73.16,4.06.48,1.36.33,2.68.82,3.94,1.45.6.31,1.1.78,1.45,1.36.36.59.55,1.26.55,1.95v1c0,.66-.26,1.3-.73,1.77-.46.48-1.1.74-1.77.73H4.75c-.66,0-1.3-.26-1.77-.73-.48-.46-.74-1.1-.73-1.77v-1Zm25,3.5h-3.19c.23-.37.4-.78.52-1.2.11-.42.17-.86.17-1.3v-1.25c0-.93-.27-1.85-.77-2.64-.55-.88-1.29-1.62-2.17-2.17,1.02.12,2.02.33,3,.64.91.29,1.79.66,2.63,1.11.66.34,1.25.82,1.72,1.39.38.47.59,1.06.59,1.67v1.25c0,.66-.26,1.3-.73,1.77-.46.48-1.1.74-1.77.73Zm-15-10c-1.33.02-2.61-.51-3.53-1.47-.96-.92-1.49-2.2-1.47-3.53-.02-1.33.51-2.61,1.47-3.53.92-.96,2.2-1.49,3.53-1.47,1.33-.02,2.61.51,3.53,1.47.96.92,1.49,2.2,1.47,3.53.02,1.33-.51,2.61-1.47,3.53-.92.96-2.2,1.49-3.53,1.47Zm12.5-5c.02,1.33-.51,2.61-1.47,3.53-.92.96-2.2,1.49-3.53,1.47-.29,0-.59-.03-.88-.08-.29-.04-.59-.1-.88-.17.56-.66,1-1.41,1.3-2.22.3-.81.45-1.67.45-2.53,0-.86-.15-1.72-.45-2.53-.3-.81-.74-1.56-1.3-2.22.28-.1.58-.17.88-.2.29-.03.58-.05.88-.05,1.33-.02,2.61.51,3.53,1.47.96.92,1.49,2.2,1.47,3.53ZM4.75,23h15v-1c0-.22-.06-.44-.17-.62-.11-.18-.27-.33-.45-.44-1.08-.55-2.23-.97-3.41-1.27-1.14-.28-2.3-.42-3.47-.42-1.17,0-2.33.14-3.47.42-1.18.29-2.32.72-3.41,1.27-.19.1-.34.25-.45.44-.11.19-.17.4-.17.62v1Zm7.5-10c.66,0,1.3-.26,1.77-.73.48-.46.74-1.1.73-1.77,0-.66-.26-1.3-.73-1.77-.46-.48-1.1-.74-1.77-.73-.66,0-1.3.26-1.77.73-.48.46-.74,1.1-.73,1.77,0,.66.26,1.3.73,1.77.46.48,1.1.74,1.77.73Z" style="stroke-width:0px;"/></g></g></svg>