<?xml version="1.0" encoding="UTF-8"?><svg id="uuid-8a855d63-6968-4483-9798-9e69ee62d9b3" xmlns="http://www.w3.org/2000/svg" width="32" height="32" viewBox="0 0 32 32"><g id="uuid-5ec03d61-36a9-4c37-bad4-0e164caa720d"><path id="uuid-244c8e6e-fd67-4d2b-8dac-ba6ca5a805c0" d="m16,16c-1.33.02-2.61-.51-3.53-1.47-.96-.92-1.49-2.2-1.47-3.53-.02-1.33.51-2.61,1.47-3.53.92-.96,2.2-1.49,3.53-1.47,1.33-.02,2.61.51,3.53,1.47.96.92,1.49,2.2,1.47,3.53.02,1.33-.51,2.61-1.47,3.53-.92.96-2.2,1.49-3.53,1.47Zm-10,7.5v-1c0-.69.18-1.37.55-1.95.35-.58.85-1.05,1.45-1.36,1.25-.63,2.57-1.12,3.94-1.45,1.33-.32,2.69-.49,4.06-.48,1.37,0,2.73.16,4.06.48,1.36.33,2.68.82,3.94,1.45.6.31,1.1.78,1.45,1.36.36.59.55,1.26.55,1.95v1c0,.66-.26,1.3-.73,1.77-.46.48-1.1.74-1.77.73h-15c-.66,0-1.3-.26-1.77-.73-.48-.46-.74-1.1-.73-1.77Z" style="stroke-width:0px;"/></g></svg>