<?xml version="1.0" encoding="UTF-8"?><svg id="uuid-eb99dc56-7dec-41c2-a5bf-1aa59a26c27b" xmlns="http://www.w3.org/2000/svg" width="32" height="32" viewBox="0 0 32 32"><g id="uuid-a53d5d45-7d9d-4eee-9a2a-b2006bd2af77"><path id="uuid-79b4e465-8a27-4735-a8e4-8fa7cba8972d" d="m13.62,25.88c-2.19,0-4.86-.01-7.94-.03-.31,0-.61-.11-.83-.33-.22-.22-.34-.52-.33-.83,0-.31.11-.61.33-.83.22-.22.52-.34.83-.33h1.16V7.31c0-.62.24-1.21.68-1.64.43-.44,1.02-.69,1.63-.68h6.95c.41,0,.82.1,1.17.32.34.21.62.5.83.84h2.63c.62,0,1.21.24,1.63.68.44.43.69,1.02.68,1.63v3.48c0,.31-.11.61-.33.83-.22.22-.51.34-.82.33-.31,0-.61-.11-.83-.33-.22-.22-.34-.52-.33-.83v-3.48h-2.32v6.74c-2.13,1.38-3.42,3.75-3.42,6.29,0,1.57.49,3.1,1.4,4.37-.62,0-1.58,0-2.78,0Zm1.17-11.61c-.31,0-.61.11-.83.33s-.34.52-.33.83c0,.31.11.61.33.83.22.22.52.34.83.33.31,0,.61-.11.83-.33.22-.22.34-.52.33-.83,0-.31-.11-.61-.33-.83s-.52-.34-.83-.33Z" style="stroke-width:0px;"/></g></svg>