<?xml version="1.0" encoding="UTF-8"?><svg id="uuid-724c0387-ada2-45f3-a3b1-fcc5b6254cfb" xmlns="http://www.w3.org/2000/svg" width="32" height="32" viewBox="0 0 32 32"><g id="uuid-a6ccc26c-1a58-42a9-acdc-612eea0838d5"><path id="uuid-7870c9f2-8b42-46aa-9791-e283047fbb98" d="m8.22,23.78h1.58l10.86-10.86-1.58-1.58-10.86,10.86v1.58Zm-1.11,2.22c-.3,0-.58-.11-.79-.32-.21-.21-.33-.5-.32-.79v-2.69c0-.29.06-.58.17-.85.11-.26.27-.51.47-.71l14.03-14c.22-.2.46-.36.74-.47.27-.11.56-.17.85-.17.3,0,.59.06.86.17.28.11.52.28.72.5l1.53,1.56c.22.2.38.45.49.72.1.27.15.55.15.83,0,.29-.05.58-.15.85-.11.28-.27.53-.49.74l-14,14c-.2.2-.44.36-.71.47-.27.11-.56.17-.85.17h-2.69ZM23.78,9.78l-1.56-1.56,1.56,1.56Zm-3.92,2.36l-.78-.81,1.58,1.58-.8-.78Z" style="stroke-width:0px;"/></g></svg>