<?xml version="1.0" encoding="UTF-8"?><svg id="uuid-546756c6-e572-4feb-912e-dbcee8d558bc" xmlns="http://www.w3.org/2000/svg" width="32" height="32" viewBox="0 0 32 32"><g id="uuid-cbb25226-a0d7-40eb-99b0-595506c1444d"><path id="uuid-fd618436-95de-4dc3-8392-0e6b78f27d95" d="m14.57,17.43h-7.14c-.38,0-.75-.14-1.02-.41-.27-.27-.42-.64-.41-1.02,0-.38.14-.75.41-1.02.27-.27.64-.42,1.02-.41h7.14v-7.14c0-.38.14-.75.41-1.02.27-.27.64-.42,1.02-.41.38,0,.75.14,1.02.41.27.27.42.64.41,1.02v7.14h7.14c.38,0,.75.14,1.02.41.27.27.42.64.41,1.02,0,.38-.14.75-.41,1.02-.27.27-.64.42-1.02.41h-7.14v7.14c0,.38-.14.75-.41,1.02-.27.27-.64.42-1.02.41-.38,0-.75-.14-1.02-.41-.27-.27-.42-.64-.41-1.02v-7.14Z" style="stroke-width:0px;"/></g></svg>