<?xml version="1.0" encoding="UTF-8"?><svg id="uuid-e5810960-77ca-40f6-9ebd-589ba2dacb52" xmlns="http://www.w3.org/2000/svg" width="32" height="32" viewBox="0 0 32 32"><g id="uuid-2023c061-9147-4163-afa7-37b7902fb6a4"><path id="uuid-05a03f47-16c8-41d6-adf7-93908bfffcda" d="m13.89,23.78v-2.22h-6.67c-.59,0-1.16-.23-1.57-.65-.43-.41-.66-.98-.65-1.57v-11.11c0-.59.23-1.16.65-1.57.41-.42.98-.66,1.57-.65h17.78c.59,0,1.16.23,1.57.65.42.41.66.98.65,1.57v11.11c0,.59-.23,1.16-.65,1.57-.41.42-.98.66-1.57.65h-6.67v2.22h1.11c.3,0,.58.11.79.32.21.21.33.5.32.79,0,.3-.11.58-.32.79-.21.21-.5.33-.79.32h-6.67c-.3,0-.58-.11-.79-.32-.21-.21-.33-.5-.32-.79,0-.3.11-.58.32-.79.21-.21.5-.33.79-.32h1.11Zm-6.67-4.44h17.78v-11.11H7.22v11.11Zm0,0h0Z" style="stroke-width:0px;"/></g></svg>