<?xml version="1.0" encoding="UTF-8"?><svg id="uuid-c6af3768-89fa-4c81-9d7e-8d2934e0c442" xmlns="http://www.w3.org/2000/svg" width="32" height="32" viewBox="0 0 32 32"><g id="uuid-e9ebbdd1-ccfe-4963-93cf-cc047cd3c298"><g id="uuid-40f761b1-9f51-41f4-89c0-7b8cf188dcbe"><path id="uuid-ca9c619a-9321-415e-a5ab-9a9c422a99ab" d="m22.74,20l-1.68-1.68c.16-.27.3-.55.42-.84.13-.3.22-.61.28-.93.07-.31.22-.59.45-.81.22-.21.52-.33.83-.32.31,0,.61.12.81.35.21.23.31.54.26.84-.09.61-.26,1.21-.49,1.78-.23.57-.52,1.11-.87,1.61Zm-3.43-3.48l-6.74-6.73v-1.34c-.02-.93.35-1.82,1.02-2.47.65-.67,1.54-1.03,2.47-1.02.93-.02,1.82.35,2.47,1.02.66.65,1.03,1.54,1.02,2.47v6.97c0,.2-.02.39-.07.58-.05.17-.1.35-.16.52h0Zm-4.41,9.35v-2.44c-1.73-.21-3.34-1-4.57-2.23-1.25-1.23-2.07-2.85-2.31-4.59-.05-.31.05-.62.26-.84.21-.23.5-.36.81-.35.31,0,.61.11.83.33.23.23.38.51.45.83.25,1.32.97,2.5,2.02,3.34,1.03.86,2.33,1.32,3.67,1.31.64,0,1.27-.1,1.87-.3.58-.2,1.12-.49,1.61-.86l1.65,1.66c-.57.45-1.18.82-1.84,1.12-.68.3-1.4.51-2.13.6v2.44c0,.31-.11.61-.33.83-.22.22-.52.34-.83.33-.31,0-.61-.11-.83-.33-.22-.22-.34-.52-.33-.84Zm9.4,2.21L4.57,8.33c-.21-.22-.33-.51-.32-.81-.01-.3.11-.6.32-.81.22-.21.51-.33.81-.32.3-.01.6.11.81.32l19.74,19.74c.21.22.33.51.32.81.01.3-.11.6-.32.81-.22.21-.51.33-.81.32-.3.01-.6-.1-.81-.32h0Z" style="fill:#fff; stroke-width:0px;"/></g></g></svg>