<?xml version="1.0" encoding="UTF-8"?><svg id="uuid-216e13ed-0c5d-4a68-9124-ddb411a23773" xmlns="http://www.w3.org/2000/svg" width="32" height="32" viewBox="0 0 32 32"><g id="uuid-67de5580-1714-4a8c-84b7-c5e8c56d677c"><path id="uuid-182db62f-2278-4b0e-b692-09c4852ad748" d="m10,27c-.53,0-1.04-.21-1.41-.59-.38-.37-.6-.88-.59-1.41v-10c0-.53.21-1.04.59-1.41.37-.38.88-.59,1.41-.59h9v-2c.01-.8-.3-1.57-.88-2.12-.56-.57-1.33-.89-2.12-.88-.67-.01-1.32.21-1.84.64-.51.41-.88.96-1.06,1.59-.07.23-.21.43-.41.56-.2.14-.44.21-.69.21-.26,0-.52-.09-.71-.28-.18-.16-.27-.41-.21-.65.23-1.14.83-2.16,1.73-2.9.89-.77,2.02-1.19,3.2-1.17,1.33-.02,2.61.51,3.54,1.46.95.93,1.48,2.21,1.46,3.54v2h1c.53,0,1.04.2,1.41.59.38.37.59.88.59,1.41v10c0,.53-.2,1.04-.59,1.41-.37.38-.88.6-1.41.59h-12Zm0-2h12v-10h-12v10Zm6-3c.53,0,1.04-.21,1.41-.59.38-.37.6-.88.59-1.41,0-.53-.21-1.04-.59-1.41-.37-.38-.88-.59-1.41-.59-.53,0-1.04.2-1.41.59-.38.37-.59.88-.59,1.41,0,.53.2,1.04.59,1.41.37.38.88.6,1.41.59Zm-6,3h0Z" style="stroke-width:0px;"/></g></svg>