<?xml version="1.0" encoding="UTF-8"?><svg id="uuid-f5444dbd-7de4-4172-977b-94ecab7b4e13" xmlns="http://www.w3.org/2000/svg" width="32" height="32" viewBox="0 0 32 32"><g id="uuid-f50c8e67-dd64-46a3-b283-13a91c21825e"><path id="uuid-e26b59b7-b621-42e6-a466-9d5d5e1d9227" d="m8.22,26c-.59,0-1.16-.23-1.57-.65-.42-.41-.66-.98-.65-1.57v-15.56c0-.59.23-1.16.65-1.57.41-.42.98-.66,1.57-.65h6.67c.3,0,.58.11.79.32.21.21.33.5.32.79,0,.3-.11.58-.32.79-.21.21-.5.33-.79.32h-6.67v15.56h6.67c.3,0,.58.11.79.32.21.21.33.5.32.79,0,.3-.11.58-.32.79-.21.21-.5.33-.79.32h-6.67Zm13.53-8.89h-7.97c-.3,0-.58-.11-.79-.32-.21-.21-.33-.5-.32-.79,0-.3.11-.58.32-.79.21-.21.5-.33.79-.32h7.97l-2.08-2.08c-.2-.2-.31-.47-.31-.75,0-.29.11-.57.31-.78.2-.22.48-.35.78-.35.3-.01.6.1.81.32l3.97,3.97c.21.2.33.48.33.78,0,.29-.12.58-.33.78l-3.97,3.97c-.21.22-.49.33-.79.32-.3,0-.58-.13-.79-.35-.2-.21-.31-.5-.29-.79,0-.29.12-.56.32-.76l2.06-2.06Z" style="stroke-width:0px;"/></g></svg>